<?xml version="1.0" standalone="no"?>
<!DOCTYPE svg PUBLIC "-//W3C//DTD SVG 20010904//EN"
 "http://www.w3.org/TR/2001/REC-SVG-20010904/DTD/svg10.dtd">
<svg version="1.0" xmlns="http://www.w3.org/2000/svg"
 width="1280.000000pt" height="640.000000pt" viewBox="0 0 1280.000000 640.000000"
 preserveAspectRatio="xMidYMid meet">
<g transform="translate(0.000000,640.000000) scale(0.100000,-0.100000)"
fill="#FFFFFF" stroke="#000000" stroke-width="100">
<path d="M12322 4853 l-244 -3 -949 -814 c-820 -702 -962 -820 -1043 -865
-110 -61 -248 -112 -361 -134 -150 -30 -877 -51 -2245 -67 -520 -7 -1183 -15
-1475 -19 -406 -6 -554 -5 -635 5 -523 63 -1004 110 -1385 136 -205 13 -989
13 -1945 -1 -556 -9 -638 -12 -740 -30 -220 -38 -275 -64 -475 -220 -97 -76
-153 -110 -319 -193 -224 -112 -333 -179 -418 -257 -109 -100 -98 -169 42
-263 299 -200 830 -342 1490 -397 69 -6 190 -16 270 -23 91 -8 408 -13 855
-15 391 -1 904 -6 1140 -10 l430 -8 9 -57 c8 -56 9 -58 45 -65 45 -10 327 -9
404 1 52 7 57 10 57 32 0 13 3 24 8 25 4 1 113 2 242 4 243 2 300 8 300 31 0
35 37 37 655 45 627 9 857 19 1005 43 56 10 210 17 450 21 955 16 1263 60
2609 375 260 61 634 147 830 191 196 44 475 107 621 140 146 33 347 76 447 95
197 37 263 57 336 104 64 41 89 84 112 193 5 24 19 35 93 70 l87 42 -55 6
c-30 4 -76 7 -102 8 -34 1 -66 11 -110 35 -66 36 -164 66 -216 66 -17 0 -34 5
-37 10 -4 6 38 124 93 263 308 780 582 1485 582 1495 0 9 -30 11 -107 10 -60
-2 -218 -4 -351 -5z"/>
</g>
</svg>
